<svg xmlns="http://www.w3.org/2000/svg" viewBox="0 0 96 96" width="96" height="96" shape-rendering="crispEdges">
<rect width="96" height="96" fill="#9aaa82"/>
<g fill="#182112"><rect x="11" y="22" width="4" height="4"/><rect x="17" y="18" width="4" height="8"/><rect x="23" y="14" width="4" height="12"/><rect x="29" y="10" width="4" height="16"/><rect x="64" y="14" width="20" height="2"/><rect x="64" y="24" width="20" height="2"/><rect x="64" y="14" width="2" height="12"/><rect x="82" y="14" width="2" height="12"/><rect x="84" y="17" width="2" height="6"/><rect x="67" y="17" width="10" height="6"/><rect x="20" y="40" width="3" height="3"/><rect x="17" y="43" width="3" height="3"/><rect x="20" y="43" width="3" height="3"/><rect x="20" y="46" width="3" height="3"/><rect x="20" y="49" width="3" height="3"/><rect x="20" y="52" width="3" height="3"/><rect x="20" y="55" width="3" height="3"/><rect x="17" y="58" width="3" height="3"/><rect x="20" y="58" width="3" height="3"/><rect x="23" y="58" width="3" height="3"/><rect x="35" y="40" width="3" height="3"/><rect x="38" y="40" width="3" height="3"/><rect x="41" y="40" width="3" height="3"/><rect x="32" y="43" width="3" height="3"/><rect x="44" y="43" width="3" height="3"/><rect x="44" y="46" width="3" height="3"/><rect x="41" y="49" width="3" height="3"/><rect x="38" y="52" width="3" height="3"/><rect x="35" y="55" width="3" height="3"/><rect x="32" y="58" width="3" height="3"/><rect x="35" y="58" width="3" height="3"/><rect x="38" y="58" width="3" height="3"/><rect x="41" y="58" width="3" height="3"/><rect x="44" y="58" width="3" height="3"/><rect x="53" y="40" width="3" height="3"/><rect x="56" y="40" width="3" height="3"/><rect x="59" y="40" width="3" height="3"/><rect x="50" y="43" width="3" height="3"/><rect x="62" y="43" width="3" height="3"/><rect x="50" y="46" width="3" height="3"/><rect x="62" y="46" width="3" height="3"/><rect x="53" y="49" width="3" height="3"/><rect x="56" y="49" width="3" height="3"/><rect x="59" y="49" width="3" height="3"/><rect x="50" y="52" width="3" height="3"/><rect x="62" y="52" width="3" height="3"/><rect x="50" y="55" width="3" height="3"/><rect x="62" y="55" width="3" height="3"/><rect x="53" y="58" width="3" height="3"/><rect x="56" y="58" width="3" height="3"/><rect x="59" y="58" width="3" height="3"/><rect x="71" y="40" width="3" height="3"/><rect x="74" y="40" width="3" height="3"/><rect x="77" y="40" width="3" height="3"/><rect x="68" y="43" width="3" height="3"/><rect x="80" y="43" width="3" height="3"/><rect x="68" y="46" width="3" height="3"/><rect x="80" y="46" width="3" height="3"/><rect x="68" y="49" width="3" height="3"/><rect x="80" y="49" width="3" height="3"/><rect x="68" y="52" width="3" height="3"/><rect x="80" y="52" width="3" height="3"/><rect x="68" y="55" width="3" height="3"/><rect x="80" y="55" width="3" height="3"/><rect x="71" y="58" width="3" height="3"/><rect x="74" y="58" width="3" height="3"/><rect x="77" y="58" width="3" height="3"/><rect x="11" y="70" width="74" height="2"/><rect x="11" y="76" width="1" height="1"/><rect x="15" y="76" width="1" height="1"/><rect x="11" y="77" width="1" height="1"/><rect x="12" y="77" width="1" height="1"/><rect x="14" y="77" width="1" height="1"/><rect x="15" y="77" width="1" height="1"/><rect x="11" y="78" width="1" height="1"/><rect x="13" y="78" width="1" height="1"/><rect x="15" y="78" width="1" height="1"/><rect x="11" y="79" width="1" height="1"/><rect x="13" y="79" width="1" height="1"/><rect x="15" y="79" width="1" height="1"/><rect x="11" y="80" width="1" height="1"/><rect x="15" y="80" width="1" height="1"/><rect x="11" y="81" width="1" height="1"/><rect x="15" y="81" width="1" height="1"/><rect x="11" y="82" width="1" height="1"/><rect x="15" y="82" width="1" height="1"/><rect x="18" y="78" width="1" height="1"/><rect x="19" y="78" width="1" height="1"/><rect x="20" y="78" width="1" height="1"/><rect x="17" y="79" width="1" height="1"/><rect x="21" y="79" width="1" height="1"/><rect x="17" y="80" width="1" height="1"/><rect x="18" y="80" width="1" height="1"/><rect x="19" y="80" width="1" height="1"/><rect x="20" y="80" width="1" height="1"/><rect x="21" y="80" width="1" height="1"/><rect x="17" y="81" width="1" height="1"/><rect x="18" y="82" width="1" height="1"/><rect x="19" y="82" width="1" height="1"/><rect x="20" y="82" width="1" height="1"/><rect x="23" y="78" width="1" height="1"/><rect x="24" y="78" width="1" height="1"/><rect x="25" y="78" width="1" height="1"/><rect x="26" y="78" width="1" height="1"/><rect x="23" y="79" width="1" height="1"/><rect x="27" y="79" width="1" height="1"/><rect x="23" y="80" width="1" height="1"/><rect x="27" y="80" width="1" height="1"/><rect x="23" y="81" width="1" height="1"/><rect x="27" y="81" width="1" height="1"/><rect x="23" y="82" width="1" height="1"/><rect x="27" y="82" width="1" height="1"/><rect x="29" y="78" width="1" height="1"/><rect x="33" y="78" width="1" height="1"/><rect x="29" y="79" width="1" height="1"/><rect x="33" y="79" width="1" height="1"/><rect x="29" y="80" width="1" height="1"/><rect x="33" y="80" width="1" height="1"/><rect x="29" y="81" width="1" height="1"/><rect x="32" y="81" width="1" height="1"/><rect x="33" y="81" width="1" height="1"/><rect x="30" y="82" width="1" height="1"/><rect x="31" y="82" width="1" height="1"/><rect x="33" y="82" width="1" height="1"/><rect x="56" y="76" width="1" height="1"/><rect x="60" y="76" width="1" height="1"/><rect x="56" y="77" width="1" height="1"/><rect x="57" y="77" width="1" height="1"/><rect x="60" y="77" width="1" height="1"/><rect x="56" y="78" width="1" height="1"/><rect x="57" y="78" width="1" height="1"/><rect x="60" y="78" width="1" height="1"/><rect x="56" y="79" width="1" height="1"/><rect x="58" y="79" width="1" height="1"/><rect x="60" y="79" width="1" height="1"/><rect x="56" y="80" width="1" height="1"/><rect x="59" y="80" width="1" height="1"/><rect x="60" y="80" width="1" height="1"/><rect x="56" y="81" width="1" height="1"/><rect x="59" y="81" width="1" height="1"/><rect x="60" y="81" width="1" height="1"/><rect x="56" y="82" width="1" height="1"/><rect x="60" y="82" width="1" height="1"/><rect x="63" y="78" width="1" height="1"/><rect x="64" y="78" width="1" height="1"/><rect x="65" y="78" width="1" height="1"/><rect x="66" y="79" width="1" height="1"/><rect x="63" y="80" width="1" height="1"/><rect x="64" y="80" width="1" height="1"/><rect x="65" y="80" width="1" height="1"/><rect x="66" y="80" width="1" height="1"/><rect x="62" y="81" width="1" height="1"/><rect x="66" y="81" width="1" height="1"/><rect x="63" y="82" width="1" height="1"/><rect x="64" y="82" width="1" height="1"/><rect x="65" y="82" width="1" height="1"/><rect x="66" y="82" width="1" height="1"/><rect x="68" y="78" width="1" height="1"/><rect x="69" y="78" width="1" height="1"/><rect x="71" y="78" width="1" height="1"/><rect x="68" y="79" width="1" height="1"/><rect x="70" y="79" width="1" height="1"/><rect x="72" y="79" width="1" height="1"/><rect x="68" y="80" width="1" height="1"/><rect x="70" y="80" width="1" height="1"/><rect x="72" y="80" width="1" height="1"/><rect x="68" y="81" width="1" height="1"/><rect x="70" y="81" width="1" height="1"/><rect x="72" y="81" width="1" height="1"/><rect x="68" y="82" width="1" height="1"/><rect x="70" y="82" width="1" height="1"/><rect x="72" y="82" width="1" height="1"/><rect x="75" y="78" width="1" height="1"/><rect x="76" y="78" width="1" height="1"/><rect x="77" y="78" width="1" height="1"/><rect x="74" y="79" width="1" height="1"/><rect x="78" y="79" width="1" height="1"/><rect x="74" y="80" width="1" height="1"/><rect x="75" y="80" width="1" height="1"/><rect x="76" y="80" width="1" height="1"/><rect x="77" y="80" width="1" height="1"/><rect x="78" y="80" width="1" height="1"/><rect x="74" y="81" width="1" height="1"/><rect x="75" y="82" width="1" height="1"/><rect x="76" y="82" width="1" height="1"/><rect x="77" y="82" width="1" height="1"/><rect x="81" y="78" width="1" height="1"/><rect x="82" y="78" width="1" height="1"/><rect x="83" y="78" width="1" height="1"/><rect x="84" y="78" width="1" height="1"/><rect x="80" y="79" width="1" height="1"/><rect x="81" y="80" width="1" height="1"/><rect x="82" y="80" width="1" height="1"/><rect x="83" y="80" width="1" height="1"/><rect x="84" y="81" width="1" height="1"/><rect x="80" y="82" width="1" height="1"/><rect x="81" y="82" width="1" height="1"/><rect x="82" y="82" width="1" height="1"/><rect x="83" y="82" width="1" height="1"/></g>
</svg>